%TF.GenerationSoftware,KiCad,Pcbnew,8.0.5*%
%TF.CreationDate,2024-10-09T14:13:09+02:00*%
%TF.ProjectId,ElectronicVdP,456c6563-7472-46f6-9e69-635664502e6b,v 1.0*%
%TF.SameCoordinates,Original*%
%TF.FileFunction,Paste,Top*%
%TF.FilePolarity,Positive*%
%FSLAX46Y46*%
G04 Gerber Fmt 4.6, Leading zero omitted, Abs format (unit mm)*
G04 Created by KiCad (PCBNEW 8.0.5) date 2024-10-09 14:13:09*
%MOMM*%
%LPD*%
G01*
G04 APERTURE LIST*
G04 Aperture macros list*
%AMRoundRect*
0 Rectangle with rounded corners*
0 $1 Rounding radius*
0 $2 $3 $4 $5 $6 $7 $8 $9 X,Y pos of 4 corners*
0 Add a 4 corners polygon primitive as box body*
4,1,4,$2,$3,$4,$5,$6,$7,$8,$9,$2,$3,0*
0 Add four circle primitives for the rounded corners*
1,1,$1+$1,$2,$3*
1,1,$1+$1,$4,$5*
1,1,$1+$1,$6,$7*
1,1,$1+$1,$8,$9*
0 Add four rect primitives between the rounded corners*
20,1,$1+$1,$2,$3,$4,$5,0*
20,1,$1+$1,$4,$5,$6,$7,0*
20,1,$1+$1,$6,$7,$8,$9,0*
20,1,$1+$1,$8,$9,$2,$3,0*%
G04 Aperture macros list end*
%ADD10R,0.977900X0.508000*%
%ADD11R,0.650000X0.900000*%
%ADD12R,0.900000X0.650000*%
%ADD13R,0.840000X2.640000*%
%ADD14R,1.390000X0.910000*%
%ADD15R,2.640000X0.840000*%
%ADD16RoundRect,0.150000X-0.875000X-0.150000X0.875000X-0.150000X0.875000X0.150000X-0.875000X0.150000X0*%
G04 APERTURE END LIST*
D10*
%TO.C,U11*%
X53989850Y-103364999D03*
X53989850Y-104315000D03*
X53989850Y-105265001D03*
X56720350Y-105265001D03*
X56720350Y-103364999D03*
%TD*%
%TO.C,U10*%
X66769550Y-103364999D03*
X66769550Y-104315000D03*
X66769550Y-105265001D03*
X69500050Y-105265001D03*
X69500050Y-103364999D03*
%TD*%
%TO.C,U9*%
X90634750Y-103049999D03*
X90634750Y-104000000D03*
X90634750Y-104950001D03*
X93365250Y-104950001D03*
X93365250Y-103049999D03*
%TD*%
%TO.C,U8*%
X124769550Y-126424999D03*
X124769550Y-127375000D03*
X124769550Y-128325001D03*
X127500050Y-128325001D03*
X127500050Y-126424999D03*
%TD*%
%TO.C,U7*%
X96500050Y-120834999D03*
X96500050Y-121785000D03*
X96500050Y-122735001D03*
X99230550Y-122735001D03*
X99230550Y-120834999D03*
%TD*%
%TO.C,U3*%
X113355050Y-102554999D03*
X113355050Y-103505000D03*
X113355050Y-104455001D03*
X116085550Y-104455001D03*
X116085550Y-102554999D03*
%TD*%
%TO.C,U2*%
X111769550Y-120969999D03*
X111769550Y-121920000D03*
X111769550Y-122870001D03*
X114500050Y-122870001D03*
X114500050Y-120969999D03*
%TD*%
%TO.C,U1*%
X81134750Y-122764999D03*
X81134750Y-123715000D03*
X81134750Y-124665001D03*
X83865250Y-124665001D03*
X83865250Y-122764999D03*
%TD*%
D11*
%TO.C,R14*%
X156225000Y-125500000D03*
X154775000Y-125500000D03*
%TD*%
%TO.C,R13*%
X161500000Y-129000000D03*
X162950000Y-129000000D03*
%TD*%
%TO.C,R12*%
X140775000Y-125500000D03*
X142225000Y-125500000D03*
%TD*%
%TO.C,R11*%
X144000000Y-129000000D03*
X145450000Y-129000000D03*
%TD*%
%TO.C,R10*%
X104775000Y-122620000D03*
X106225000Y-122620000D03*
%TD*%
%TO.C,R9*%
X90275000Y-124500000D03*
X91725000Y-124500000D03*
%TD*%
%TO.C,R8*%
X75500000Y-123016666D03*
X74050000Y-123016666D03*
%TD*%
%TO.C,R7*%
X109775000Y-96520000D03*
X111225000Y-96520000D03*
%TD*%
D12*
%TO.C,R6*%
X110000000Y-113665000D03*
X110000000Y-112215000D03*
%TD*%
D11*
%TO.C,R5*%
X104775000Y-119000000D03*
X106225000Y-119000000D03*
%TD*%
%TO.C,R4*%
X75500000Y-119500000D03*
X74050000Y-119500000D03*
%TD*%
D12*
%TO.C,R3*%
X89000000Y-127775000D03*
X89000000Y-129225000D03*
%TD*%
D11*
%TO.C,R2*%
X90275000Y-120015000D03*
X91725000Y-120015000D03*
%TD*%
%TO.C,R1*%
X75500000Y-126500000D03*
X74050000Y-126500000D03*
%TD*%
D13*
%TO.C,C30*%
X164500000Y-112500000D03*
X161500000Y-112500000D03*
%TD*%
D14*
%TO.C,C29*%
X62525000Y-143115000D03*
X62525000Y-141475000D03*
%TD*%
%TO.C,C28*%
X62525000Y-134820000D03*
X62525000Y-133180000D03*
%TD*%
D13*
%TO.C,C27*%
X161500000Y-120000000D03*
X164500000Y-120000000D03*
%TD*%
%TO.C,C26*%
X68500000Y-117835000D03*
X65500000Y-117835000D03*
%TD*%
%TO.C,C25*%
X65500000Y-125335000D03*
X68500000Y-125335000D03*
%TD*%
D15*
%TO.C,C24*%
X116625300Y-96925000D03*
X116625300Y-99925000D03*
%TD*%
%TO.C,C23*%
X111500000Y-107085000D03*
X111500000Y-110085000D03*
%TD*%
%TO.C,C22*%
X111500000Y-126000000D03*
X111500000Y-129000000D03*
%TD*%
%TO.C,C21*%
X117500000Y-116000000D03*
X117500000Y-119000000D03*
%TD*%
D13*
%TO.C,C20*%
X81000000Y-127500000D03*
X84000000Y-127500000D03*
%TD*%
D15*
%TO.C,C19*%
X84000000Y-117000000D03*
X84000000Y-120000000D03*
%TD*%
%TO.C,C18*%
X91365000Y-107580000D03*
X91365000Y-110580000D03*
%TD*%
%TO.C,C17*%
X92000000Y-97420000D03*
X92000000Y-100420000D03*
%TD*%
%TO.C,C16*%
X65500000Y-107500000D03*
X65500000Y-110500000D03*
%TD*%
%TO.C,C15*%
X70500000Y-97735000D03*
X70500000Y-100735000D03*
%TD*%
%TO.C,C14*%
X57500000Y-97500000D03*
X57500000Y-100500000D03*
%TD*%
%TO.C,C13*%
X52500000Y-107500000D03*
X52500000Y-110500000D03*
%TD*%
D13*
%TO.C,C12*%
X137580000Y-103910000D03*
X140580000Y-103910000D03*
%TD*%
%TO.C,C11*%
X140580000Y-97560000D03*
X137580000Y-97560000D03*
%TD*%
%TO.C,C10*%
X140580000Y-112800000D03*
X137580000Y-112800000D03*
%TD*%
%TO.C,C9*%
X137580000Y-120420000D03*
X140580000Y-120420000D03*
%TD*%
%TO.C,C8*%
X133500000Y-127425000D03*
X130500000Y-127425000D03*
%TD*%
%TO.C,C7*%
X121000000Y-127425000D03*
X118000000Y-127425000D03*
%TD*%
D15*
%TO.C,C6*%
X99500000Y-115000000D03*
X99500000Y-118000000D03*
%TD*%
%TO.C,C5*%
X95000000Y-125000000D03*
X95000000Y-128000000D03*
%TD*%
D13*
%TO.C,C4*%
X164500000Y-97000000D03*
X161500000Y-97000000D03*
%TD*%
%TO.C,C3*%
X161500000Y-105000000D03*
X164500000Y-105000000D03*
%TD*%
D16*
%TO.C,U5*%
X124470000Y-112165000D03*
X124470000Y-113435000D03*
X124470000Y-114705000D03*
X124470000Y-115975000D03*
X124470000Y-117245000D03*
X124470000Y-118515000D03*
X124470000Y-119785000D03*
X124470000Y-121055000D03*
X133770000Y-121055000D03*
X133770000Y-119785000D03*
X133770000Y-118515000D03*
X133770000Y-117245000D03*
X133770000Y-115975000D03*
X133770000Y-114705000D03*
X133770000Y-113435000D03*
X133770000Y-112165000D03*
%TD*%
%TO.C,U12*%
X148350000Y-96980000D03*
X148350000Y-98250000D03*
X148350000Y-99520000D03*
X148350000Y-100790000D03*
X148350000Y-102060000D03*
X148350000Y-103330000D03*
X148350000Y-104600000D03*
X148350000Y-105870000D03*
X157650000Y-105870000D03*
X157650000Y-104600000D03*
X157650000Y-103330000D03*
X157650000Y-102060000D03*
X157650000Y-100790000D03*
X157650000Y-99520000D03*
X157650000Y-98250000D03*
X157650000Y-96980000D03*
%TD*%
%TO.C,U13*%
X148350000Y-112555000D03*
X148350000Y-113825000D03*
X148350000Y-115095000D03*
X148350000Y-116365000D03*
X148350000Y-117635000D03*
X148350000Y-118905000D03*
X148350000Y-120175000D03*
X148350000Y-121445000D03*
X157650000Y-121445000D03*
X157650000Y-120175000D03*
X157650000Y-118905000D03*
X157650000Y-117635000D03*
X157650000Y-116365000D03*
X157650000Y-115095000D03*
X157650000Y-113825000D03*
X157650000Y-112555000D03*
%TD*%
%TO.C,U6*%
X52350000Y-117555000D03*
X52350000Y-118825000D03*
X52350000Y-120095000D03*
X52350000Y-121365000D03*
X52350000Y-122635000D03*
X52350000Y-123905000D03*
X52350000Y-125175000D03*
X52350000Y-126445000D03*
X61650000Y-126445000D03*
X61650000Y-125175000D03*
X61650000Y-123905000D03*
X61650000Y-122635000D03*
X61650000Y-121365000D03*
X61650000Y-120095000D03*
X61650000Y-118825000D03*
X61650000Y-117555000D03*
%TD*%
%TO.C,U4*%
X124040000Y-96925000D03*
X124040000Y-98195000D03*
X124040000Y-99465000D03*
X124040000Y-100735000D03*
X124040000Y-102005000D03*
X124040000Y-103275000D03*
X124040000Y-104545000D03*
X124040000Y-105815000D03*
X133340000Y-105815000D03*
X133340000Y-104545000D03*
X133340000Y-103275000D03*
X133340000Y-102005000D03*
X133340000Y-100735000D03*
X133340000Y-99465000D03*
X133340000Y-98195000D03*
X133340000Y-96925000D03*
%TD*%
M02*
