%TF.GenerationSoftware,KiCad,Pcbnew,8.0.5*%
%TF.CreationDate,2024-10-09T14:13:09+02:00*%
%TF.ProjectId,ElectronicVdP,456c6563-7472-46f6-9e69-635664502e6b,v 1.0*%
%TF.SameCoordinates,Original*%
%TF.FileFunction,Soldermask,Top*%
%TF.FilePolarity,Negative*%
%FSLAX46Y46*%
G04 Gerber Fmt 4.6, Leading zero omitted, Abs format (unit mm)*
G04 Created by KiCad (PCBNEW 8.0.5) date 2024-10-09 14:13:09*
%MOMM*%
%LPD*%
G01*
G04 APERTURE LIST*
G04 Aperture macros list*
%AMRoundRect*
0 Rectangle with rounded corners*
0 $1 Rounding radius*
0 $2 $3 $4 $5 $6 $7 $8 $9 X,Y pos of 4 corners*
0 Add a 4 corners polygon primitive as box body*
4,1,4,$2,$3,$4,$5,$6,$7,$8,$9,$2,$3,0*
0 Add four circle primitives for the rounded corners*
1,1,$1+$1,$2,$3*
1,1,$1+$1,$4,$5*
1,1,$1+$1,$6,$7*
1,1,$1+$1,$8,$9*
0 Add four rect primitives between the rounded corners*
20,1,$1+$1,$2,$3,$4,$5,0*
20,1,$1+$1,$4,$5,$6,$7,0*
20,1,$1+$1,$6,$7,$8,$9,0*
20,1,$1+$1,$8,$9,$2,$3,0*%
G04 Aperture macros list end*
%ADD10C,0.500000*%
%ADD11RoundRect,0.050800X-0.488950X-0.254000X0.488950X-0.254000X0.488950X0.254000X-0.488950X0.254000X0*%
%ADD12C,1.601600*%
%ADD13C,2.351600*%
%ADD14RoundRect,0.050800X0.325000X0.450000X-0.325000X0.450000X-0.325000X-0.450000X0.325000X-0.450000X0*%
%ADD15RoundRect,0.050800X-0.325000X-0.450000X0.325000X-0.450000X0.325000X0.450000X-0.325000X0.450000X0*%
%ADD16RoundRect,0.050800X0.450000X-0.325000X0.450000X0.325000X-0.450000X0.325000X-0.450000X-0.325000X0*%
%ADD17RoundRect,0.050800X-0.450000X0.325000X-0.450000X-0.325000X0.450000X-0.325000X0.450000X0.325000X0*%
%ADD18RoundRect,0.050800X0.900000X0.900000X-0.900000X0.900000X-0.900000X-0.900000X0.900000X-0.900000X0*%
%ADD19C,1.901600*%
%ADD20C,4.256600*%
%ADD21RoundRect,0.050800X-0.700000X-0.700000X0.700000X-0.700000X0.700000X0.700000X-0.700000X0.700000X0*%
%ADD22C,1.501600*%
%ADD23C,3.101600*%
%ADD24RoundRect,0.050800X-0.975000X0.975000X-0.975000X-0.975000X0.975000X-0.975000X0.975000X0.975000X0*%
%ADD25C,2.051600*%
%ADD26RoundRect,0.050800X0.420000X1.320000X-0.420000X1.320000X-0.420000X-1.320000X0.420000X-1.320000X0*%
%ADD27RoundRect,0.050800X0.695000X-0.455000X0.695000X0.455000X-0.695000X0.455000X-0.695000X-0.455000X0*%
%ADD28RoundRect,0.050800X-0.420000X-1.320000X0.420000X-1.320000X0.420000X1.320000X-0.420000X1.320000X0*%
%ADD29RoundRect,0.050800X-1.320000X0.420000X-1.320000X-0.420000X1.320000X-0.420000X1.320000X0.420000X0*%
%ADD30C,1.676600*%
%ADD31RoundRect,0.175400X-0.900400X-0.175400X0.900400X-0.175400X0.900400X0.175400X-0.900400X0.175400X0*%
G04 APERTURE END LIST*
D10*
X55725475Y-153377500D02*
G75*
G02*
X52725475Y-153377500I-1500000J0D01*
G01*
X52725475Y-153377500D02*
G75*
G02*
X55725475Y-153377500I1500000J0D01*
G01*
X62000000Y-153317500D02*
G75*
G02*
X59000000Y-153317500I-1500000J0D01*
G01*
X59000000Y-153317500D02*
G75*
G02*
X62000000Y-153317500I1500000J0D01*
G01*
D11*
%TO.C,U11*%
X53989850Y-103364999D03*
X53989850Y-104315000D03*
X53989850Y-105265001D03*
X56720350Y-105265001D03*
X56720350Y-103364999D03*
%TD*%
%TO.C,U10*%
X66769550Y-103364999D03*
X66769550Y-104315000D03*
X66769550Y-105265001D03*
X69500050Y-105265001D03*
X69500050Y-103364999D03*
%TD*%
%TO.C,U9*%
X90634750Y-103049999D03*
X90634750Y-104000000D03*
X90634750Y-104950001D03*
X93365250Y-104950001D03*
X93365250Y-103049999D03*
%TD*%
%TO.C,U8*%
X124769550Y-126424999D03*
X124769550Y-127375000D03*
X124769550Y-128325001D03*
X127500050Y-128325001D03*
X127500050Y-126424999D03*
%TD*%
%TO.C,U7*%
X96500050Y-120834999D03*
X96500050Y-121785000D03*
X96500050Y-122735001D03*
X99230550Y-122735001D03*
X99230550Y-120834999D03*
%TD*%
%TO.C,U3*%
X113355050Y-102554999D03*
X113355050Y-103505000D03*
X113355050Y-104455001D03*
X116085550Y-104455001D03*
X116085550Y-102554999D03*
%TD*%
%TO.C,U2*%
X111769550Y-120969999D03*
X111769550Y-121920000D03*
X111769550Y-122870001D03*
X114500050Y-122870001D03*
X114500050Y-120969999D03*
%TD*%
%TO.C,U1*%
X81134750Y-122764999D03*
X81134750Y-123715000D03*
X81134750Y-124665001D03*
X83865250Y-124665001D03*
X83865250Y-122764999D03*
%TD*%
D12*
%TO.C,S4*%
X72000000Y-135075000D03*
X72000000Y-137075000D03*
X72000000Y-139075000D03*
D13*
X73550000Y-133575000D03*
X73550000Y-144575000D03*
X68250000Y-133575000D03*
X68250000Y-144575000D03*
%TD*%
D12*
%TO.C,S3*%
X111600000Y-135075000D03*
X111600000Y-137075000D03*
X111600000Y-139075000D03*
D13*
X113150000Y-133575000D03*
X113150000Y-144575000D03*
X107850000Y-133575000D03*
X107850000Y-144575000D03*
%TD*%
D12*
%TO.C,S2*%
X82500000Y-135075000D03*
X82500000Y-137075000D03*
X82500000Y-139075000D03*
D13*
X84050000Y-133575000D03*
X84050000Y-144575000D03*
X78750000Y-133575000D03*
X78750000Y-144575000D03*
%TD*%
D14*
%TO.C,R14*%
X156225000Y-125500000D03*
X154775000Y-125500000D03*
%TD*%
D15*
%TO.C,R13*%
X161500000Y-129000000D03*
X162950000Y-129000000D03*
%TD*%
%TO.C,R12*%
X140775000Y-125500000D03*
X142225000Y-125500000D03*
%TD*%
%TO.C,R11*%
X144000000Y-129000000D03*
X145450000Y-129000000D03*
%TD*%
%TO.C,R10*%
X104775000Y-122620000D03*
X106225000Y-122620000D03*
%TD*%
%TO.C,R9*%
X90275000Y-124500000D03*
X91725000Y-124500000D03*
%TD*%
D14*
%TO.C,R8*%
X75500000Y-123016666D03*
X74050000Y-123016666D03*
%TD*%
D15*
%TO.C,R7*%
X109775000Y-96520000D03*
X111225000Y-96520000D03*
%TD*%
D16*
%TO.C,R6*%
X110000000Y-113665000D03*
X110000000Y-112215000D03*
%TD*%
D15*
%TO.C,R5*%
X104775000Y-119000000D03*
X106225000Y-119000000D03*
%TD*%
D14*
%TO.C,R4*%
X75500000Y-119500000D03*
X74050000Y-119500000D03*
%TD*%
D17*
%TO.C,R3*%
X89000000Y-127775000D03*
X89000000Y-129225000D03*
%TD*%
D15*
%TO.C,R2*%
X90275000Y-120015000D03*
X91725000Y-120015000D03*
%TD*%
D14*
%TO.C,R1*%
X75500000Y-126500000D03*
X74050000Y-126500000D03*
%TD*%
D18*
%TO.C,P4*%
X161500000Y-132700000D03*
D19*
X159000000Y-132700000D03*
X156500000Y-132700000D03*
D20*
X163400000Y-139700000D03*
X154600000Y-139700000D03*
%TD*%
D18*
%TO.C,P3*%
X126635000Y-132700000D03*
D19*
X124135000Y-132700000D03*
X121635000Y-132700000D03*
D20*
X128535000Y-139700000D03*
X119735000Y-139700000D03*
%TD*%
D18*
%TO.C,P2*%
X96500000Y-132700000D03*
D19*
X94000000Y-132700000D03*
X91500000Y-132700000D03*
D20*
X98400000Y-139700000D03*
X89600000Y-139700000D03*
%TD*%
D18*
%TO.C,P1*%
X144000000Y-132700000D03*
D19*
X141500000Y-132700000D03*
X139000000Y-132700000D03*
D20*
X145900000Y-139700000D03*
X137100000Y-139700000D03*
%TD*%
D21*
%TO.C,J6*%
X152000000Y-89000000D03*
D22*
X149460000Y-89000000D03*
D23*
X157080000Y-83920000D03*
X146920000Y-83920000D03*
%TD*%
D21*
%TO.C,J5*%
X128605000Y-89500000D03*
D22*
X126065000Y-89500000D03*
D23*
X133685000Y-84420000D03*
X123525000Y-84420000D03*
%TD*%
D24*
%TO.C,J4*%
X56000000Y-133000000D03*
D25*
X56000000Y-138000000D03*
X56000000Y-143000000D03*
%TD*%
D21*
%TO.C,J3*%
X105210000Y-89120000D03*
D22*
X102670000Y-89120000D03*
D23*
X110290000Y-84040000D03*
X100130000Y-84040000D03*
%TD*%
D21*
%TO.C,J2*%
X81815000Y-89120000D03*
D22*
X79275000Y-89120000D03*
D23*
X86895000Y-84040000D03*
X76735000Y-84040000D03*
%TD*%
D21*
%TO.C,J1*%
X58420000Y-89080000D03*
D22*
X55880000Y-89080000D03*
D23*
X63500000Y-84000000D03*
X53340000Y-84000000D03*
%TD*%
D26*
%TO.C,C30*%
X164500000Y-112500000D03*
X161500000Y-112500000D03*
%TD*%
D27*
%TO.C,C29*%
X62525000Y-143115000D03*
X62525000Y-141475000D03*
%TD*%
%TO.C,C28*%
X62525000Y-134820000D03*
X62525000Y-133180000D03*
%TD*%
D28*
%TO.C,C27*%
X161500000Y-120000000D03*
X164500000Y-120000000D03*
%TD*%
D26*
%TO.C,C26*%
X68500000Y-117835000D03*
X65500000Y-117835000D03*
%TD*%
D28*
%TO.C,C25*%
X65500000Y-125335000D03*
X68500000Y-125335000D03*
%TD*%
D29*
%TO.C,C24*%
X116625300Y-96925000D03*
X116625300Y-99925000D03*
%TD*%
%TO.C,C23*%
X111500000Y-107085000D03*
X111500000Y-110085000D03*
%TD*%
%TO.C,C22*%
X111500000Y-126000000D03*
X111500000Y-129000000D03*
%TD*%
%TO.C,C21*%
X117500000Y-116000000D03*
X117500000Y-119000000D03*
%TD*%
D28*
%TO.C,C20*%
X81000000Y-127500000D03*
X84000000Y-127500000D03*
%TD*%
D29*
%TO.C,C19*%
X84000000Y-117000000D03*
X84000000Y-120000000D03*
%TD*%
%TO.C,C18*%
X91365000Y-107580000D03*
X91365000Y-110580000D03*
%TD*%
%TO.C,C17*%
X92000000Y-97420000D03*
X92000000Y-100420000D03*
%TD*%
%TO.C,C16*%
X65500000Y-107500000D03*
X65500000Y-110500000D03*
%TD*%
%TO.C,C15*%
X70500000Y-97735000D03*
X70500000Y-100735000D03*
%TD*%
%TO.C,C14*%
X57500000Y-97500000D03*
X57500000Y-100500000D03*
%TD*%
%TO.C,C13*%
X52500000Y-107500000D03*
X52500000Y-110500000D03*
%TD*%
D28*
%TO.C,C12*%
X137580000Y-103910000D03*
X140580000Y-103910000D03*
%TD*%
D26*
%TO.C,C11*%
X140580000Y-97560000D03*
X137580000Y-97560000D03*
%TD*%
%TO.C,C10*%
X140580000Y-112800000D03*
X137580000Y-112800000D03*
%TD*%
D28*
%TO.C,C9*%
X137580000Y-120420000D03*
X140580000Y-120420000D03*
%TD*%
D26*
%TO.C,C8*%
X133500000Y-127425000D03*
X130500000Y-127425000D03*
%TD*%
%TO.C,C7*%
X121000000Y-127425000D03*
X118000000Y-127425000D03*
%TD*%
D29*
%TO.C,C6*%
X99500000Y-115000000D03*
X99500000Y-118000000D03*
%TD*%
%TO.C,C5*%
X95000000Y-125000000D03*
X95000000Y-128000000D03*
%TD*%
D26*
%TO.C,C4*%
X164500000Y-97000000D03*
X161500000Y-97000000D03*
%TD*%
D28*
%TO.C,C3*%
X161500000Y-105000000D03*
X164500000Y-105000000D03*
%TD*%
D30*
%TO.C,C2*%
X103505000Y-111640000D03*
X103505000Y-96640000D03*
%TD*%
%TO.C,C1*%
X80010000Y-96640000D03*
X80010000Y-111640000D03*
%TD*%
D31*
%TO.C,U5*%
X124470000Y-112165000D03*
X124470000Y-113435000D03*
X124470000Y-114705000D03*
X124470000Y-115975000D03*
X124470000Y-117245000D03*
X124470000Y-118515000D03*
X124470000Y-119785000D03*
X124470000Y-121055000D03*
X133770000Y-121055000D03*
X133770000Y-119785000D03*
X133770000Y-118515000D03*
X133770000Y-117245000D03*
X133770000Y-115975000D03*
X133770000Y-114705000D03*
X133770000Y-113435000D03*
X133770000Y-112165000D03*
%TD*%
%TO.C,U12*%
X148350000Y-96980000D03*
X148350000Y-98250000D03*
X148350000Y-99520000D03*
X148350000Y-100790000D03*
X148350000Y-102060000D03*
X148350000Y-103330000D03*
X148350000Y-104600000D03*
X148350000Y-105870000D03*
X157650000Y-105870000D03*
X157650000Y-104600000D03*
X157650000Y-103330000D03*
X157650000Y-102060000D03*
X157650000Y-100790000D03*
X157650000Y-99520000D03*
X157650000Y-98250000D03*
X157650000Y-96980000D03*
%TD*%
%TO.C,U13*%
X148350000Y-112555000D03*
X148350000Y-113825000D03*
X148350000Y-115095000D03*
X148350000Y-116365000D03*
X148350000Y-117635000D03*
X148350000Y-118905000D03*
X148350000Y-120175000D03*
X148350000Y-121445000D03*
X157650000Y-121445000D03*
X157650000Y-120175000D03*
X157650000Y-118905000D03*
X157650000Y-117635000D03*
X157650000Y-116365000D03*
X157650000Y-115095000D03*
X157650000Y-113825000D03*
X157650000Y-112555000D03*
%TD*%
%TO.C,U6*%
X52350000Y-117555000D03*
X52350000Y-118825000D03*
X52350000Y-120095000D03*
X52350000Y-121365000D03*
X52350000Y-122635000D03*
X52350000Y-123905000D03*
X52350000Y-125175000D03*
X52350000Y-126445000D03*
X61650000Y-126445000D03*
X61650000Y-125175000D03*
X61650000Y-123905000D03*
X61650000Y-122635000D03*
X61650000Y-121365000D03*
X61650000Y-120095000D03*
X61650000Y-118825000D03*
X61650000Y-117555000D03*
%TD*%
%TO.C,U4*%
X124040000Y-96925000D03*
X124040000Y-98195000D03*
X124040000Y-99465000D03*
X124040000Y-100735000D03*
X124040000Y-102005000D03*
X124040000Y-103275000D03*
X124040000Y-104545000D03*
X124040000Y-105815000D03*
X133340000Y-105815000D03*
X133340000Y-104545000D03*
X133340000Y-103275000D03*
X133340000Y-102005000D03*
X133340000Y-100735000D03*
X133340000Y-99465000D03*
X133340000Y-98195000D03*
X133340000Y-96925000D03*
%TD*%
M02*
