%TF.GenerationSoftware,KiCad,Pcbnew,8.0.5*%
%TF.CreationDate,2024-10-09T14:13:20+02:00*%
%TF.ProjectId,ElectronicVdP,456c6563-7472-46f6-9e69-635664502e6b,v 1.0*%
%TF.SameCoordinates,Original*%
%TF.FileFunction,Drillmap*%
%TF.FilePolarity,Positive*%
%FSLAX45Y45*%
G04 Gerber Fmt 4.5, Leading zero omitted, Abs format (unit mm)*
G04 Created by KiCad (PCBNEW 8.0.5) date 2024-10-09 14:13:20*
%MOMM*%
%LPD*%
G01*
G04 APERTURE LIST*
%ADD10C,0.100000*%
%ADD11C,0.200000*%
G04 APERTURE END LIST*
D10*
X4741000Y-7616000D02*
X16843000Y-7616000D01*
X16843000Y-15661500D01*
X4741000Y-15661500D01*
X4741000Y-7616000D01*
D11*
X4996777Y-15977984D02*
X4996777Y-15777984D01*
X4996777Y-15777984D02*
X5044396Y-15777984D01*
X5044396Y-15777984D02*
X5072967Y-15787508D01*
X5072967Y-15787508D02*
X5092015Y-15806555D01*
X5092015Y-15806555D02*
X5101539Y-15825603D01*
X5101539Y-15825603D02*
X5111063Y-15863698D01*
X5111063Y-15863698D02*
X5111063Y-15892269D01*
X5111063Y-15892269D02*
X5101539Y-15930365D01*
X5101539Y-15930365D02*
X5092015Y-15949412D01*
X5092015Y-15949412D02*
X5072967Y-15968460D01*
X5072967Y-15968460D02*
X5044396Y-15977984D01*
X5044396Y-15977984D02*
X4996777Y-15977984D01*
X5196777Y-15977984D02*
X5196777Y-15844650D01*
X5196777Y-15882746D02*
X5206301Y-15863698D01*
X5206301Y-15863698D02*
X5215824Y-15854174D01*
X5215824Y-15854174D02*
X5234872Y-15844650D01*
X5234872Y-15844650D02*
X5253920Y-15844650D01*
X5320586Y-15977984D02*
X5320586Y-15844650D01*
X5320586Y-15777984D02*
X5311063Y-15787508D01*
X5311063Y-15787508D02*
X5320586Y-15797031D01*
X5320586Y-15797031D02*
X5330110Y-15787508D01*
X5330110Y-15787508D02*
X5320586Y-15777984D01*
X5320586Y-15777984D02*
X5320586Y-15797031D01*
X5444396Y-15977984D02*
X5425348Y-15968460D01*
X5425348Y-15968460D02*
X5415824Y-15949412D01*
X5415824Y-15949412D02*
X5415824Y-15777984D01*
X5549158Y-15977984D02*
X5530110Y-15968460D01*
X5530110Y-15968460D02*
X5520586Y-15949412D01*
X5520586Y-15949412D02*
X5520586Y-15777984D01*
X5777729Y-15977984D02*
X5777729Y-15777984D01*
X5777729Y-15777984D02*
X5844396Y-15920841D01*
X5844396Y-15920841D02*
X5911062Y-15777984D01*
X5911062Y-15777984D02*
X5911062Y-15977984D01*
X6092015Y-15977984D02*
X6092015Y-15873222D01*
X6092015Y-15873222D02*
X6082491Y-15854174D01*
X6082491Y-15854174D02*
X6063443Y-15844650D01*
X6063443Y-15844650D02*
X6025348Y-15844650D01*
X6025348Y-15844650D02*
X6006301Y-15854174D01*
X6092015Y-15968460D02*
X6072967Y-15977984D01*
X6072967Y-15977984D02*
X6025348Y-15977984D01*
X6025348Y-15977984D02*
X6006301Y-15968460D01*
X6006301Y-15968460D02*
X5996777Y-15949412D01*
X5996777Y-15949412D02*
X5996777Y-15930365D01*
X5996777Y-15930365D02*
X6006301Y-15911317D01*
X6006301Y-15911317D02*
X6025348Y-15901793D01*
X6025348Y-15901793D02*
X6072967Y-15901793D01*
X6072967Y-15901793D02*
X6092015Y-15892269D01*
X6187253Y-15844650D02*
X6187253Y-16044650D01*
X6187253Y-15854174D02*
X6206301Y-15844650D01*
X6206301Y-15844650D02*
X6244396Y-15844650D01*
X6244396Y-15844650D02*
X6263443Y-15854174D01*
X6263443Y-15854174D02*
X6272967Y-15863698D01*
X6272967Y-15863698D02*
X6282491Y-15882746D01*
X6282491Y-15882746D02*
X6282491Y-15939888D01*
X6282491Y-15939888D02*
X6272967Y-15958936D01*
X6272967Y-15958936D02*
X6263443Y-15968460D01*
X6263443Y-15968460D02*
X6244396Y-15977984D01*
X6244396Y-15977984D02*
X6206301Y-15977984D01*
X6206301Y-15977984D02*
X6187253Y-15968460D01*
X6368205Y-15958936D02*
X6377729Y-15968460D01*
X6377729Y-15968460D02*
X6368205Y-15977984D01*
X6368205Y-15977984D02*
X6358682Y-15968460D01*
X6358682Y-15968460D02*
X6368205Y-15958936D01*
X6368205Y-15958936D02*
X6368205Y-15977984D01*
X6368205Y-15854174D02*
X6377729Y-15863698D01*
X6377729Y-15863698D02*
X6368205Y-15873222D01*
X6368205Y-15873222D02*
X6358682Y-15863698D01*
X6358682Y-15863698D02*
X6368205Y-15854174D01*
X6368205Y-15854174D02*
X6368205Y-15873222D01*
M02*
