M48
; DRILL file {KiCad 8.0.5} date 2024-10-09T14:13:17+0200
; FORMAT={-:-/ absolute / inch / decimal}
; #@! TF.CreationDate,2024-10-09T14:13:17+02:00
; #@! TF.GenerationSoftware,Kicad,Pcbnew,8.0.5
; #@! TF.FileFunction,Plated,1,2,PTH
FMAT,2
INCH
; #@! TA.AperFunction,Plated,PTH,ViaDrill
T1C0.0157
; #@! TA.AperFunction,Plated,PTH,ComponentDrill
T2C0.0354
; #@! TA.AperFunction,Plated,PTH,ComponentDrill
T3C0.0394
; #@! TA.AperFunction,Plated,PTH,ComponentDrill
T4C0.0413
; #@! TA.AperFunction,Plated,PTH,ComponentDrill
T5C0.0512
; #@! TA.AperFunction,Plated,PTH,ComponentDrill
T6C0.0591
; #@! TA.AperFunction,Plated,PTH,ComponentDrill
T7C0.0787
; #@! TA.AperFunction,Plated,PTH,ViaDrill
T8C0.0984
; #@! TA.AperFunction,Plated,PTH,ComponentDrill
T9C0.1091
%
G90
G05
T1
X2.0669Y-4.2323
X2.1256Y-4.0695
X2.1256Y-4.1443
X2.2331Y-4.1443
X2.2638Y-3.9567
X2.4616Y-5.2433
X2.4616Y-5.6344
X2.5787Y-4.2323
X2.5787Y-4.626
X2.5787Y-4.9409
X2.5984Y-4.5079
X2.6287Y-4.0695
X2.7264Y-4.3799
X2.7362Y-4.1443
X2.7756Y-3.9764
X2.7953Y-4.9803
X2.9154Y-4.8432
X2.9724Y-4.7047
X2.9724Y-4.8432
X2.9724Y-4.9816
X2.9724Y-5.1181
X2.9724Y-5.9055
X3.0472Y-5.3967
X3.0512Y-5.9055
X3.189Y-5.0197
X3.3018Y-4.9081
X3.3071Y-4.7244
X3.3701Y-5.4843
X3.4094Y-5.315
X3.5683Y-4.0571
X3.597Y-4.2354
X3.6112Y-4.725
X3.622Y-3.9567
X3.6758Y-4.1319
X3.7402Y-4.9213
X3.7992Y-4.7573
X3.9067Y-4.8321
X3.9173Y-4.6457
X3.9173Y-5.0197
X3.9567Y-4.0157
X4.0157Y-5.7874
X4.0354Y-4.8622
X4.0945Y-5.5315
X4.1821Y-4.685
X4.1929Y-4.0157
X4.311Y-3.6024
X4.315Y-5.1772
X4.3898Y-4.8031
X4.3898Y-4.9606
X4.3917Y-4.2126
X4.4291Y-3.8976
X4.5866Y-3.937
X4.626Y-4.685
X4.7638Y-5.0167
X4.8819Y-3.6614
X4.9122Y-4.9774
X5.0197Y-5.0522
X5.1378Y-4.8425
X5.1378Y-5.0167
X5.2165Y-5.6102
X5.4134Y-4.7441
X5.4165Y-3.8409
X5.4165Y-4.0909
X5.4165Y-4.4409
X5.7283Y-5.0787
X5.8268Y-4.8425
X5.8366Y-4.065
X6.0935Y-4.9409
X6.3583Y-3.8189
X6.3583Y-4.1339
X6.3583Y-4.4291
X6.3583Y-4.7244
X6.4173Y-5.0787
T2
X2.2Y-3.5071
X2.3Y-3.5071
X3.1211Y-3.5087
X3.2211Y-3.5087
X4.0421Y-3.5087
X4.1421Y-3.5087
X4.9632Y-3.5236
X5.0632Y-3.5236
X5.8843Y-3.5039
X5.9843Y-3.5039
T3
X2.8346Y-5.3179
X2.8346Y-5.3967
X2.8346Y-5.4754
X3.248Y-5.3179
X3.248Y-5.3967
X3.248Y-5.4754
X3.6024Y-5.2244
X3.7008Y-5.2244
X3.7992Y-5.2244
X4.3937Y-5.3179
X4.3937Y-5.3967
X4.3937Y-5.4754
X4.7888Y-5.2244
X4.8872Y-5.2244
X4.9856Y-5.2244
X5.4724Y-5.2244
X5.5709Y-5.2244
X5.6693Y-5.2244
X6.1614Y-5.2244
X6.2598Y-5.2244
X6.3583Y-5.2244
T4
X3.15Y-3.8047
X3.15Y-4.3953
X4.075Y-3.8047
X4.075Y-4.3953
T5
X2.2047Y-5.2362
X2.2047Y-5.4331
X2.2047Y-5.6299
T6
X2.687Y-5.2589
X2.687Y-5.6919
X2.8957Y-5.2589
X2.8957Y-5.6919
X3.1004Y-5.2589
X3.1004Y-5.6919
X3.3091Y-5.2589
X3.3091Y-5.6919
X4.2461Y-5.2589
X4.2461Y-5.6919
X4.4547Y-5.2589
X4.4547Y-5.6919
T7
X2.1Y-3.3071
X2.5Y-3.3071
X3.0211Y-3.3087
X3.4211Y-3.3087
X3.9421Y-3.3087
X4.3421Y-3.3087
X4.8632Y-3.3236
X5.2632Y-3.3236
X5.7843Y-3.3039
X6.1843Y-3.3039
T8
X2.1409Y-6.0385
X2.3891Y-6.0361
T9
X3.5276Y-5.5
X3.874Y-5.5
X4.714Y-5.5
X5.0604Y-5.5
X5.3976Y-5.5
X5.7441Y-5.5
X6.0866Y-5.5
X6.4331Y-5.5
M30
