%TF.GenerationSoftware,KiCad,Pcbnew,8.0.5*%
%TF.CreationDate,2024-10-09T14:13:09+02:00*%
%TF.ProjectId,ElectronicVdP,456c6563-7472-46f6-9e69-635664502e6b,v 1.0*%
%TF.SameCoordinates,Original*%
%TF.FileFunction,Soldermask,Bot*%
%TF.FilePolarity,Negative*%
%FSLAX46Y46*%
G04 Gerber Fmt 4.6, Leading zero omitted, Abs format (unit mm)*
G04 Created by KiCad (PCBNEW 8.0.5) date 2024-10-09 14:13:09*
%MOMM*%
%LPD*%
G01*
G04 APERTURE LIST*
G04 Aperture macros list*
%AMRoundRect*
0 Rectangle with rounded corners*
0 $1 Rounding radius*
0 $2 $3 $4 $5 $6 $7 $8 $9 X,Y pos of 4 corners*
0 Add a 4 corners polygon primitive as box body*
4,1,4,$2,$3,$4,$5,$6,$7,$8,$9,$2,$3,0*
0 Add four circle primitives for the rounded corners*
1,1,$1+$1,$2,$3*
1,1,$1+$1,$4,$5*
1,1,$1+$1,$6,$7*
1,1,$1+$1,$8,$9*
0 Add four rect primitives between the rounded corners*
20,1,$1+$1,$2,$3,$4,$5,0*
20,1,$1+$1,$4,$5,$6,$7,0*
20,1,$1+$1,$6,$7,$8,$9,0*
20,1,$1+$1,$8,$9,$2,$3,0*%
G04 Aperture macros list end*
%ADD10C,0.500000*%
%ADD11C,1.601600*%
%ADD12C,2.351600*%
%ADD13RoundRect,0.050800X0.900000X0.900000X-0.900000X0.900000X-0.900000X-0.900000X0.900000X-0.900000X0*%
%ADD14C,1.901600*%
%ADD15C,4.256600*%
%ADD16RoundRect,0.050800X-0.700000X-0.700000X0.700000X-0.700000X0.700000X0.700000X-0.700000X0.700000X0*%
%ADD17C,1.501600*%
%ADD18C,3.101600*%
%ADD19RoundRect,0.050800X-0.975000X0.975000X-0.975000X-0.975000X0.975000X-0.975000X0.975000X0.975000X0*%
%ADD20C,2.051600*%
%ADD21C,1.676600*%
G04 APERTURE END LIST*
D10*
X62000000Y-153317500D02*
G75*
G02*
X59000000Y-153317500I-1500000J0D01*
G01*
X59000000Y-153317500D02*
G75*
G02*
X62000000Y-153317500I1500000J0D01*
G01*
X55725475Y-153377500D02*
G75*
G02*
X52725475Y-153377500I-1500000J0D01*
G01*
X52725475Y-153377500D02*
G75*
G02*
X55725475Y-153377500I1500000J0D01*
G01*
D11*
%TO.C,S4*%
X72000000Y-135075000D03*
X72000000Y-137075000D03*
X72000000Y-139075000D03*
D12*
X73550000Y-133575000D03*
X73550000Y-144575000D03*
X68250000Y-133575000D03*
X68250000Y-144575000D03*
%TD*%
D11*
%TO.C,S3*%
X111600000Y-135075000D03*
X111600000Y-137075000D03*
X111600000Y-139075000D03*
D12*
X113150000Y-133575000D03*
X113150000Y-144575000D03*
X107850000Y-133575000D03*
X107850000Y-144575000D03*
%TD*%
D11*
%TO.C,S2*%
X82500000Y-135075000D03*
X82500000Y-137075000D03*
X82500000Y-139075000D03*
D12*
X84050000Y-133575000D03*
X84050000Y-144575000D03*
X78750000Y-133575000D03*
X78750000Y-144575000D03*
%TD*%
D13*
%TO.C,P4*%
X161500000Y-132700000D03*
D14*
X159000000Y-132700000D03*
X156500000Y-132700000D03*
D15*
X163400000Y-139700000D03*
X154600000Y-139700000D03*
%TD*%
D13*
%TO.C,P3*%
X126635000Y-132700000D03*
D14*
X124135000Y-132700000D03*
X121635000Y-132700000D03*
D15*
X128535000Y-139700000D03*
X119735000Y-139700000D03*
%TD*%
D13*
%TO.C,P2*%
X96500000Y-132700000D03*
D14*
X94000000Y-132700000D03*
X91500000Y-132700000D03*
D15*
X98400000Y-139700000D03*
X89600000Y-139700000D03*
%TD*%
D13*
%TO.C,P1*%
X144000000Y-132700000D03*
D14*
X141500000Y-132700000D03*
X139000000Y-132700000D03*
D15*
X145900000Y-139700000D03*
X137100000Y-139700000D03*
%TD*%
D16*
%TO.C,J6*%
X152000000Y-89000000D03*
D17*
X149460000Y-89000000D03*
D18*
X157080000Y-83920000D03*
X146920000Y-83920000D03*
%TD*%
D16*
%TO.C,J5*%
X128605000Y-89500000D03*
D17*
X126065000Y-89500000D03*
D18*
X133685000Y-84420000D03*
X123525000Y-84420000D03*
%TD*%
D19*
%TO.C,J4*%
X56000000Y-133000000D03*
D20*
X56000000Y-138000000D03*
X56000000Y-143000000D03*
%TD*%
D16*
%TO.C,J3*%
X105210000Y-89120000D03*
D17*
X102670000Y-89120000D03*
D18*
X110290000Y-84040000D03*
X100130000Y-84040000D03*
%TD*%
D16*
%TO.C,J2*%
X81815000Y-89120000D03*
D17*
X79275000Y-89120000D03*
D18*
X86895000Y-84040000D03*
X76735000Y-84040000D03*
%TD*%
D16*
%TO.C,J1*%
X58420000Y-89080000D03*
D17*
X55880000Y-89080000D03*
D18*
X63500000Y-84000000D03*
X53340000Y-84000000D03*
%TD*%
D21*
%TO.C,C2*%
X103505000Y-111640000D03*
X103505000Y-96640000D03*
%TD*%
%TO.C,C1*%
X80010000Y-96640000D03*
X80010000Y-111640000D03*
%TD*%
M02*
